<?xml version="1.0" encoding="UTF-8"?>
<svg id="Camada_2" data-name="Camada 2" xmlns="http://www.w3.org/2000/svg" viewBox="0 0 663.12 161.62">
  <defs>
    <style>
      .cls-1 {
        fill: #25badc;
      }

      .cls-1, .cls-2 {
        stroke-width: 0px;
      }

      .cls-2 {
        fill: #4b009d;
      }
    </style>
  </defs>
  <g id="Camada_1-2" data-name="Camada 1">
    <g>
      <g>
        <path class="cls-1" d="m234.76,127.42c-5.17-2.86-9.43-7.38-12.78-13.59-3.35-6.2-5.02-13.93-5.02-23.19s1.57-16.37,4.73-22.52c3.15-6.15,7.31-10.73,12.48-13.74,5.17-3,10.71-4.51,16.61-4.51,8.47,0,15.51,2.46,21.12,7.38V18.43h17.72v111.06h-12.7l-2.36-9.01h-.3c-2.76,3.45-6.13,6.18-10.12,8.2-3.99,2.02-8.3,3.03-12.92,3.03-5.81,0-11.3-1.43-16.47-4.28Zm29.61-14.62c3.05-1.77,5.56-4.13,7.53-7.09v-31.75c-4.53-5.32-10.34-7.98-17.43-7.98-5.52,0-10.14,2.09-13.88,6.28-3.74,4.19-5.61,10.26-5.61,18.24,0,5.42.93,10.02,2.81,13.81,1.87,3.79,4.28,6.6,7.24,8.42,2.96,1.82,6.1,2.73,9.45,2.73,3.55,0,6.84-.89,9.9-2.66Z"/>
        <path class="cls-1" d="m362.29,54.32c5.91,2.95,10.66,7.51,14.25,13.66,3.59,6.15,5.39,13.76,5.39,22.82s-1.8,16.67-5.39,22.82c-3.6,6.15-8.34,10.71-14.25,13.66-5.91,2.96-12.36,4.43-19.35,4.43s-13.44-1.48-19.35-4.43c-5.91-2.95-10.66-7.51-14.25-13.66-3.6-6.15-5.39-13.76-5.39-22.82s1.79-16.66,5.39-22.82c3.59-6.15,8.34-10.71,14.25-13.66,5.91-2.96,12.36-4.43,19.35-4.43s13.44,1.48,19.35,4.43Zm-34.71,17.87c-3.74,4.43-5.61,10.63-5.61,18.61s1.87,14.18,5.61,18.61c3.74,4.43,8.86,6.65,15.36,6.65s11.62-2.21,15.36-6.65c3.74-4.43,5.61-10.63,5.61-18.61s-1.87-14.18-5.61-18.61c-3.74-4.43-8.86-6.65-15.36-6.65s-11.62,2.21-15.36,6.65Z"/>
        <path class="cls-1" d="m446.17,52.32c4.73,1.62,8.86,3.96,12.41,7.01l-7.24,12.41c-2.76-2.17-5.61-3.79-8.57-4.87-2.96-1.08-6.25-1.62-9.9-1.62-6.7,0-12.11,2.19-16.24,6.57-4.14,4.38-6.2,10.56-6.2,18.54s2.12,14.3,6.35,18.98c4.23,4.68,9.65,7.01,16.25,7.01,7.09,0,13.59-2.46,19.49-7.38l7.83,11.67c-3.35,3.35-7.51,6.03-12.48,8.05-4.97,2.02-10.41,3.03-16.32,3.03-7.38,0-14.03-1.63-19.94-4.87-5.91-3.25-10.56-8-13.96-14.25-3.4-6.25-5.1-13.66-5.1-22.23s1.72-15.6,5.17-21.71c3.45-6.1,8.1-10.76,13.96-13.96,5.86-3.2,12.33-4.8,19.42-4.8,5.32,0,10.34.81,15.07,2.44Z"/>
        <path class="cls-1" d="m472.9,52.1h12.11l2.8,11.52h.59c3.74-4.53,7.68-7.95,11.82-10.26,4.13-2.31,9.1-3.47,14.91-3.47,8.27,0,14.72,2.27,19.35,6.79,4.63,4.53,6.94,11.03,6.94,19.49v53.31h-17.72v-47.7c0-5.51-1.06-9.4-3.18-11.67-2.12-2.26-5.19-3.4-9.23-3.4-7.98,0-14.92,4.23-20.82,12.7v50.07h-17.58V52.1Z"/>
        <path class="cls-1" d="m576.87,23.67c2.17,1.72,3.25,4.26,3.25,7.6s-1.08,5.86-3.25,7.53c-2.17,1.67-4.78,2.51-7.83,2.51s-5.61-.84-7.68-2.51-3.1-4.19-3.1-7.53,1.06-5.88,3.18-7.6c2.12-1.72,4.65-2.58,7.61-2.58s5.66.86,7.83,2.58Zm1.03,105.82h-17.72V52.1h17.72v77.39Z"/>
        <path class="cls-1" d="m661.49,52.69l-25.55,37.07,27.17,39.14v.59h-20.23l-16.84-27.18-16.69,27.18h-20.38v-.59l28.06-39.14-27.32-36.92v-.74h20.97l15.21,25.4,15.65-25.4h19.94v.59Z"/>
      </g>
      <g>
        <path class="cls-2" d="m151.71,46.86v57.99c0,25.89-20.97,46.86-46.86,46.86h-57.99c-25.89,0-46.86-20.97-46.86-46.86v-57.99C0,20.97,20.97,0,46.86,0h57.99c2,0,3.99.13,5.9.4l-21.46,21.46h-42.43c-5.45,0-10.6,1.73-14.9,4.92-.98.71-1.91,1.51-2.79,2.39-.89.89-1.68,1.82-2.39,2.79-3.19,4.3-4.92,9.49-4.92,14.9v57.99c0,6.69,2.62,12.99,7.32,17.69,4.74,4.74,10.99,7.32,17.69,7.32h57.99c6.69,0,12.99-2.57,17.69-7.32,4.74-4.7,7.32-10.99,7.32-17.69v-42.52l21.46-21.46c.27,1.95.4,3.95.4,5.98Z"/>
        <rect class="cls-2" x="132.53" y="126.98" width="21.85" height="31.53" transform="translate(-58.92 143.24) rotate(-45)"/>
        <path class="cls-2" d="m144.78,22.32l-16.3,16.3-52.69,52.69-39.96-39.96,15.45-15.45,24.51,24.51,37.2-37.2,16.32-16.32c6.29,3.85,11.6,9.15,15.47,15.43Z"/>
      </g>
    </g>
  </g>
</svg>